<svg width="180" height="180" viewBox="0 0 180 180" fill="none" xmlns="http://www.w3.org/2000/svg">
  <rect width="180" height="180" rx="36" fill="#8F1D1D"/>
  <rect x="16" y="16" width="148" height="148" rx="28" fill="#F5F2EA"/>
  <path d="M51 110V69H66.96C74.59 69 79.8 74.2 79.8 81.68C79.8 89.1 74.59 94.3 66.96 94.3H59.08V110H51ZM59.08 87.44H66.46C69.98 87.44 72.2 85.32 72.2 81.68C72.2 77.98 69.98 75.86 66.46 75.86H59.08V87.44Z" fill="#8F1D1D"/>
  <path d="M89.1672 110L76.2272 69H84.5472L93.3872 99.63L102.167 69H110.487L97.5472 110H89.1672Z" fill="#8F1D1D"/>
  <path d="M116.525 110V69H129.845C142.205 69 150.305 77.01 150.305 89.5C150.305 101.99 142.205 110 129.845 110H116.525ZM124.845 102.78H129.605C137.025 102.78 141.985 98.11 141.985 89.5C141.985 80.89 137.025 76.22 129.605 76.22H124.845V102.78Z" fill="#8F1D1D"/>
  <circle cx="137" cy="48" r="14" fill="#8F1D1D"/>
</svg>