<svg width="512" height="512" viewBox="0 0 512 512" fill="none" xmlns="http://www.w3.org/2000/svg">
  <rect width="512" height="512" rx="96" fill="#8F1D1D"/>
  <rect x="48" y="48" width="416" height="416" rx="72" fill="#F5F2EA"/>
  <path d="M145 308V188H191.8C215.04 188 230.9 203.2 230.9 225.43C230.9 247.49 215.04 262.69 191.8 262.69H168.62V308H145ZM168.62 242.63H190.35C201.1 242.63 207.88 236.19 207.88 225.43C207.88 214.5 201.1 208.06 190.35 208.06H168.62V242.63Z" fill="#8F1D1D"/>
  <path d="M286.846 308L248.726 188H273.246L299.286 277.66L325.146 188H349.666L311.546 308H286.846Z" fill="#8F1D1D"/>
  <path d="M365.149 308V188H404.449C441.409 188 465.609 211.83 465.609 248C465.609 284.17 441.409 308 404.449 308H365.149ZM389.669 287.09H403.269C425.729 287.09 440.729 273.09 440.729 248C440.729 222.91 425.729 208.91 403.269 208.91H389.669V287.09Z" fill="#8F1D1D"/>
  <circle cx="425" cy="121" r="43" fill="#8F1D1D"/>
</svg>