<svg width="192" height="192" viewBox="0 0 192 192" fill="none" xmlns="http://www.w3.org/2000/svg">
  <rect width="192" height="192" rx="36" fill="#8F1D1D"/>
  <rect x="18" y="18" width="156" height="156" rx="28" fill="#F5F2EA"/>
  <path d="M54 116V74H71.4C79.72 74 85.4 79.32 85.4 87.1C85.4 94.82 79.72 100.14 71.4 100.14H62.64V116H54ZM62.64 93.12H70.86C74.7 93.12 77.12 90.82 77.12 87.1C77.12 83.32 74.7 81.02 70.86 81.02H62.64V93.12Z" fill="#8F1D1D"/>
  <path d="M96.1478 116L82.5278 74H91.2878L100.588 105.38L109.828 74H118.588L104.968 116H96.1478Z" fill="#8F1D1D"/>
  <path d="M124.339 116V74H138.379C151.579 74 160.219 82.34 160.219 95C160.219 107.66 151.579 116 138.379 116H124.339ZM132.979 108.68H137.959C145.979 108.68 151.339 103.78 151.339 95C151.339 86.22 145.979 81.32 137.959 81.32H132.979V108.68Z" fill="#8F1D1D"/>
  <circle cx="146" cy="50" r="16" fill="#8F1D1D"/>
</svg>